<mxfile host="app.diagrams.net" modified="2021-12-22T06:38:51.427Z" agent="5.0 (Macintosh; Intel Mac OS X 10_15_7) AppleWebKit/537.36 (KHTML, like Gecko) Chrome/96.0.4664.110 Safari/537.36 Edg/96.0.1054.62" etag="R2oiJzyAF4B1nJgPP8Hq" version="16.0.0" type="github">
  <diagram id="Yp0MygpYUnSb-zVStPFC" name="Page-1">
    <mxGraphModel dx="2153" dy="1438" grid="1" gridSize="10" guides="1" tooltips="1" connect="1" arrows="1" fold="1" page="1" pageScale="1" pageWidth="827" pageHeight="1169" math="0" shadow="0">
      <root>
        <mxCell id="0" />
        <mxCell id="1" parent="0" />
        <mxCell id="cephJSl12fS8IGZL08dT-3" value="" style="rounded=0;whiteSpace=wrap;html=1;" vertex="1" parent="1">
          <mxGeometry x="80" y="440" width="1920" height="1080" as="geometry" />
        </mxCell>
        <mxCell id="cephJSl12fS8IGZL08dT-1" value="" style="rounded=0;whiteSpace=wrap;html=1;rotation=0;sketch=0;" vertex="1" parent="1">
          <mxGeometry x="120" y="480" width="280" height="1000" as="geometry" />
        </mxCell>
        <mxCell id="cephJSl12fS8IGZL08dT-2" value="" style="rounded=0;whiteSpace=wrap;html=1;" vertex="1" parent="1">
          <mxGeometry x="440" y="480" width="1520" height="1000" as="geometry" />
        </mxCell>
      </root>
    </mxGraphModel>
  </diagram>
</mxfile>
